<svg width="148" height="148" viewBox="0 0 148 148" fill="none" xmlns="http://www.w3.org/2000/svg">
<circle cx="74" cy="74" r="74" fill="#E5F7EE"/>
<mask id="mask0_8602_232025" style="mask-type:alpha" maskUnits="userSpaceOnUse" x="0" y="0" width="148" height="148">
<circle cx="74" cy="74" r="74" fill="#E5F7EE"/>
</mask>
<g mask="url(#mask0_8602_232025)">
<path d="M39.2369 69.4402C32.1015 67.5393 27.6255 60.4735 28.9555 53.21L39.484 -4.28743C41.0224 -12.689 48.8146 -18.4564 57.299 -17.4735C67.0631 -16.3423 73.583 -6.853 71.1374 2.6673L56.5935 59.2825C54.6358 66.9032 46.8399 71.4656 39.2369 69.4402Z" fill="#9CD1B7"/>
<path d="M30.3887 56.9654C30.3887 49.1565 36.9148 42.9322 44.7149 43.3017L93.4437 45.6099C100.123 45.9262 105.375 51.4335 105.375 58.1201C105.375 65.0371 99.768 70.6444 92.8511 70.6444H44.0677C36.513 70.6444 30.3887 64.5201 30.3887 56.9654Z" fill="#9CD1B7"/>
<rect x="98" y="45" width="26" height="24" rx="12" fill="#F2B3A6"/>
<rect x="118.24" y="43.875" width="8.20493" height="15.327" rx="4.10246" transform="rotate(83.9111 118.24 43.875)" fill="#F2B3A6"/>
<rect x="127.477" y="46.5703" width="6.31467" height="16" rx="3.15733" transform="rotate(90 127.477 46.5703)" fill="#F2B3A6"/>
<rect x="130" y="53" width="6" height="14" rx="3" transform="rotate(90 130 53)" fill="#F2B3A6"/>
<rect x="127.477" y="59" width="6.31467" height="16" rx="3.15733" transform="rotate(90 127.477 59)" fill="#F2B3A6"/>
<rect x="124.779" y="66.0625" width="5" height="14" rx="2.5" transform="rotate(103.482 124.779 66.0625)" fill="#F2B3A6"/>
<path d="M31.3985 83.8809C30.9218 77.7007 36.1247 72.58 42.2965 73.155L109.425 79.4092C115.606 79.985 119.774 85.9937 118.149 91.9844L109.074 125.435C107.785 130.187 103.229 133.293 98.3352 132.758L42.876 126.691C38.0946 126.168 34.363 122.315 33.9931 117.519L31.3985 83.8809Z" fill="#67C3EF"/>
<rect x="26.0098" y="68.6719" width="101.245" height="15.7867" rx="7.89333" transform="rotate(5.60138 26.0098 68.6719)" fill="#0078AD"/>
<circle cx="107.152" cy="84.2615" r="4.93333" fill="#00364E"/>
<rect x="85.7461" y="43.6582" width="6.31467" height="47.8239" rx="3.15733" transform="rotate(-24.2496 85.7461 43.6582)" fill="#618696"/>
<circle cx="42.4255" cy="77.9451" r="4.93333" fill="#00364E"/>
<rect x="67.9141" y="40.2559" width="6.31467" height="46.5985" rx="3.15733" transform="rotate(38.5746 67.9141 40.2559)" fill="#618696"/>
<rect x="45.2695" y="94.457" width="5.92" height="23.6895" rx="2.96" transform="rotate(-2.36625 45.2695 94.457)" fill="#E5F1F7"/>
<rect width="5.91969" height="24.265" rx="2.95984" transform="matrix(0.998939 0.0460424 -0.0483437 0.998831 62.1582 95.3828)" fill="#E5F1F7"/>
<rect width="5.91823" height="24.2713" rx="2.95912" transform="matrix(0.994029 0.109114 -0.114511 0.993422 78.7617 96.7988)" fill="#E5F1F7"/>
<rect x="97.0645" y="123.658" width="5.92" height="24.345" rx="2.96" transform="rotate(-168.067 97.0645 123.658)" fill="#E5F1F7"/>
</g>
</svg>
