<svg width="24" height="24" viewBox="0 0 24 24" fill="none" xmlns="http://www.w3.org/2000/svg">
<path d="M3.60998 6.92C3.73397 6.97038 3.86617 6.9975 3.99998 7H20C20.1338 6.9975 20.266 6.97038 20.39 6.92C20.6287 6.81873 20.8187 6.6287 20.92 6.39C20.9722 6.26662 20.9992 6.13399 20.9992 6C20.9992 5.86601 20.9722 5.73338 20.92 5.61C20.8689 5.49502 20.7978 5.39005 20.71 5.3V5.3C20.6199 5.21216 20.515 5.14105 20.4 5.09C20.2735 5.03497 20.1378 5.00443 20 5H3.99998C3.86617 5.0025 3.73397 5.02962 3.60998 5.08C3.495 5.13105 3.39003 5.20216 3.29998 5.29V5.29C3.21214 5.38005 3.14103 5.48502 3.08998 5.6C3.03772 5.72338 3.0108 5.85601 3.0108 5.99C3.0108 6.12399 3.03772 6.25662 3.08998 6.38C3.18673 6.62062 3.37318 6.81424 3.60998 6.92V6.92ZM10.39 17.08C10.266 17.0296 10.1338 17.0025 9.99998 17H3.99998C3.86617 17.0025 3.73397 17.0296 3.60998 17.08C3.37128 17.1813 3.18125 17.3713 3.07998 17.61C3.02772 17.7334 3.0008 17.866 3.0008 18C3.0008 18.134 3.02772 18.2666 3.07998 18.39C3.18125 18.6287 3.37128 18.8187 3.60998 18.92C3.73397 18.9704 3.86617 18.9975 3.99998 19H9.99998C10.1338 18.9975 10.266 18.9704 10.39 18.92C10.6287 18.8187 10.8187 18.6287 10.92 18.39C10.9722 18.2666 10.9992 18.134 10.9992 18C10.9992 17.866 10.9722 17.7334 10.92 17.61C10.8187 17.3713 10.6287 17.1813 10.39 17.08ZM10.71 11.29C10.6165 11.1973 10.5057 11.124 10.3839 11.0742C10.262 11.0245 10.1316 10.9992 9.99998 11H3.99998C3.73476 11 3.48041 11.1054 3.29287 11.2929C3.10534 11.4804 2.99998 11.7348 2.99998 12V12C2.99048 12.0864 2.99048 12.1736 2.99998 12.26C2.99544 12.2999 2.99544 12.3401 2.99998 12.38C3.07973 12.5758 3.21948 12.7412 3.39915 12.8526C3.57881 12.964 3.78916 13.0156 3.99998 13H9.99998C10.1974 12.999 10.3901 12.9396 10.5538 12.8293C10.7176 12.7189 10.845 12.5626 10.92 12.38C10.9245 12.3401 10.9245 12.2999 10.92 12.26C10.9565 12.1767 10.9833 12.0894 11 12V12C11.0007 11.8684 10.9755 11.7379 10.9258 11.6161C10.876 11.4943 10.8027 11.3834 10.71 11.29ZM19.29 12.79L15.5 16.59L13.71 14.79C13.6167 14.6968 13.5061 14.6228 13.3842 14.5723C13.2624 14.5219 13.1318 14.4959 13 14.4959C12.8681 14.4959 12.7376 14.5219 12.6157 14.5723C12.4939 14.6228 12.3832 14.6968 12.29 14.79C12.1967 14.8832 12.1228 14.9939 12.0723 15.1158C12.0219 15.2376 11.9959 15.3681 11.9959 15.5C11.9959 15.6319 12.0219 15.7624 12.0723 15.8842C12.1228 16.0061 12.1967 16.1168 12.29 16.21L14.79 18.71C14.8829 18.8037 14.9935 18.8781 15.1154 18.9289C15.2373 18.9797 15.368 19.0058 15.5 19.0058C15.632 19.0058 15.7627 18.9797 15.8846 18.9289C16.0064 18.8781 16.117 18.8037 16.21 18.71L20.71 14.21C20.8032 14.1168 20.8772 14.0061 20.9276 13.8842C20.9781 13.7624 21.0041 13.6319 21.0041 13.5C21.0041 13.3681 20.9781 13.2376 20.9276 13.1158C20.8772 12.9939 20.8032 12.8832 20.71 12.79C20.6167 12.6968 20.5061 12.6228 20.3842 12.5723C20.2624 12.5219 20.1318 12.4959 20 12.4959C19.8681 12.4959 19.7376 12.5219 19.6157 12.5723C19.4939 12.6228 19.3832 12.6968 19.29 12.79V12.79Z" fill="#0078AD"/>
</svg>
