<svg width="24" height="24" viewBox="0 0 24 24" fill="none" xmlns="http://www.w3.org/2000/svg">
<path d="M12.5 2.00002C10.9 1.99873 9.32562 2.40201 7.92327 3.17236C6.52092 3.94271 5.33611 5.05512 4.47898 6.40617C3.62184 7.75723 3.12022 9.30307 3.02074 10.9C2.92126 12.4969 3.22716 14.093 3.90998 15.54L3.34998 18.93C3.30979 19.1649 3.3265 19.4059 3.39872 19.633C3.47094 19.8601 3.59656 20.0665 3.76504 20.235C3.93352 20.4034 4.13995 20.5291 4.36701 20.6013C4.59406 20.6735 4.83513 20.6902 5.06998 20.65L8.45998 20.09C9.7484 20.6986 11.1572 21.0095 12.5821 20.9998C14.0069 20.9901 15.4114 20.6599 16.6914 20.0339C17.9713 19.4078 19.0941 18.5018 19.9765 17.383C20.8589 16.2642 21.4783 14.9612 21.7889 13.5706C22.0994 12.18 22.0932 10.7373 21.7706 9.34936C21.4481 7.96146 20.8174 6.66389 19.9254 5.55275C19.0334 4.44161 17.9028 3.54536 16.6175 2.93038C15.3321 2.31539 13.9249 1.99742 12.5 2.00002V2.00002ZM12.5 17.5C12.2528 17.5 12.0111 17.4267 11.8055 17.2894C11.6 17.152 11.4397 16.9568 11.3451 16.7284C11.2505 16.5 11.2258 16.2486 11.274 16.0062C11.3222 15.7637 11.4413 15.5409 11.6161 15.3661C11.7909 15.1913 12.0136 15.0723 12.2561 15.024C12.4986 14.9758 12.7499 15.0006 12.9783 15.0952C13.2067 15.1898 13.402 15.35 13.5393 15.5556C13.6767 15.7611 13.75 16.0028 13.75 16.25C13.75 16.5815 13.6183 16.8995 13.3839 17.1339C13.1494 17.3683 12.8315 17.5 12.5 17.5ZM14.27 12.14C13.61 12.56 13.5 12.68 13.5 13C13.5 13.2652 13.3946 13.5196 13.2071 13.7071C13.0196 13.8947 12.7652 14 12.5 14C12.2348 14 11.9804 13.8947 11.7929 13.7071C11.6053 13.5196 11.5 13.2652 11.5 13C11.5194 12.4605 11.6875 11.9369 11.9858 11.4869C12.284 11.037 12.7007 10.6781 13.19 10.45C13.84 10.04 14 9.89002 14 9.50002C14 9.10219 13.8419 8.72066 13.5606 8.43936C13.2793 8.15805 12.8978 8.00002 12.5 8.00002C12.1022 8.00002 11.7206 8.15805 11.4393 8.43936C11.158 8.72066 11 9.10219 11 9.50002C11 9.76523 10.8946 10.0196 10.7071 10.2071C10.5196 10.3947 10.2652 10.5 9.99998 10.5C9.73477 10.5 9.48041 10.3947 9.29288 10.2071C9.10534 10.0196 8.99998 9.76523 8.99998 9.50002C8.99998 8.57176 9.36873 7.68152 10.0251 7.02514C10.6815 6.36876 11.5717 6.00002 12.5 6.00002C13.4282 6.00002 14.3185 6.36876 14.9749 7.02514C15.6312 7.68152 16 8.57176 16 9.50002C15.9854 10.0574 15.8158 10.5996 15.5102 11.0659C15.2047 11.5322 14.7752 11.9042 14.27 12.14V12.14Z" fill="#0078AD"/>
</svg>
