<svg width="24" height="24" viewBox="0 0 24 24" fill="none" xmlns="http://www.w3.org/2000/svg">
<path d="M19.7 5.74998L12.7 3.12998C12.2486 2.96131 11.7514 2.96131 11.3 3.12998L4.3 5.74998C4.2201 5.78732 4.1432 5.83078 4.07 5.87998L12 8.92998L19.93 5.92998C19.8586 5.86353 19.7817 5.80331 19.7 5.74998V5.74998ZM3 7.61998V16.38C3.00071 16.7869 3.12554 17.184 3.35783 17.5181C3.59011 17.8522 3.9188 18.1076 4.3 18.25L11 20.76V10.69L3 7.60998V7.61998ZM21 7.61998L13 10.7V20.76L19.7 18.25C20.0812 18.1076 20.4099 17.8522 20.6422 17.5181C20.8745 17.184 20.9993 16.7869 21 16.38V7.61998Z" fill="#0078AD"/>
</svg>
